<svg height="24" viewBox="0 0 24 24" width="24" xmlns="http://www.w3.org/2000/svg"><path d="m6.7 19.4c.3.3.6.2.9 0 .1-.1.1-.2.1-.4s-.1-.3-.2-.4l-6.1-6.6 6.2-6.5c.2-.2.2-.6 0-.8s-.6-.2-.8 0l-6.6 7c-.2.1-.2.1-.2.3s0 .2.2.4z"/><path d="m16.9 4.5c-.2 0-.4.1-.5.2s-.1.2-.1.4.1.3.2.4l6.2 6.5-6.2 6.5c-.1.1-.2.3-.2.4 0 .2.1.3.2.4.2.2.6.2.8 0l6.6-7c.1-.1.1-.2.1-.3s-.1-.3-.2-.4l-6.6-7c-.1-.1-.2-.1-.3-.1z"/><path d="m14 4.5c-.3 0-.5.2-.6.5l-3.4 13.8c-.1.3.1.6.5.7.3 0 .6-.1.7-.5l3.3-13.9c.1-.2-.2-.5-.5-.6z"/></svg>
