<?xml version="1.0" encoding="utf-8"?>
<!-- Generator: Adobe Illustrator 27.0.0, SVG Export Plug-In . SVG Version: 6.00 Build 0)  -->
<svg version="1.1" id="Layer_1" xmlns="http://www.w3.org/2000/svg" xmlns:xlink="http://www.w3.org/1999/xlink" x="0px" y="0px"
	 width="24px" height="24px" viewBox="0 0 24 24" enable-background="new 0 0 24 24" xml:space="preserve">
<path d="M0,6c0-1.33,1.07-2.4,2.4-2.4h19.2C22.92,3.6,24,4.67,24,6v12c0,1.32-1.08,2.4-2.4,2.4H2.4C1.07,20.4,0,19.32,0,18V6z
	 M16.8,18.6h4.8c0.33,0,0.6-0.27,0.6-0.6V6c0-0.33-0.27-0.6-0.6-0.6h-4.8V18.6z M15,5.4H9v13.2h6V5.4z M7.2,18.6V5.4H2.4
	C2.07,5.4,1.8,5.67,1.8,6v12c0,0.33,0.27,0.6,0.6,0.6H7.2z"/>
</svg>
